<?xml version="1.0" encoding="UTF-8" standalone="no"?>
<!-- Created with Inkscape (http://www.inkscape.org/) -->

<svg
   xmlns:dc="http://purl.org/dc/elements/1.1/"
   xmlns:cc="http://creativecommons.org/ns#"
   xmlns:rdf="http://www.w3.org/1999/02/22-rdf-syntax-ns#"
   xmlns:svg="http://www.w3.org/2000/svg"
   xmlns="http://www.w3.org/2000/svg"
   xmlns:sodipodi="http://sodipodi.sourceforge.net/DTD/sodipodi-0.dtd"
   xmlns:inkscape="http://www.inkscape.org/namespaces/inkscape"
   width="200.66484mm"
   height="41.69083mm"
   viewBox="0 0 200.66484 41.69083"
   version="1.1"
   id="svg8"
   inkscape:version="0.92.4 (f8dce91, 2019-08-02)">
  <defs
     id="defs2" />
  <sodipodi:namedview
     id="base"
     pagecolor="#ffffff"
     bordercolor="#666666"
     borderopacity="1.0"
     inkscape:pageopacity="0.0"
     inkscape:pageshadow="2"
     inkscape:zoom="0.98994949"
     inkscape:cx="245.18268"
     inkscape:cy="66.612624"
     inkscape:document-units="mm"
     inkscape:current-layer="layer1"
     showgrid="false"
     fit-margin-top="0"
     fit-margin-left="0"
     fit-margin-right="0"
     fit-margin-bottom="0"
     inkscape:window-width="1853"
     inkscape:window-height="1022"
     inkscape:window-x="67"
     inkscape:window-y="28"
     inkscape:window-maximized="1" />
  <metadata
     id="metadata5">
    <rdf:RDF>
      <cc:Work
         rdf:about="">
        <dc:format>image/svg+xml</dc:format>
        <dc:type
           rdf:resource="http://purl.org/dc/dcmitype/StillImage" />
        <dc:title></dc:title>
      </cc:Work>
    </rdf:RDF>
  </metadata>
  <g
     inkscape:label="Layer 1"
     inkscape:groupmode="layer"
     id="layer1"
     transform="translate(-2.7695732,-101.21404)">
    <g
       aria-label="MetaVest"
       style="font-style:normal;font-variant:normal;font-weight:normal;font-stretch:normal;font-size:38.79924393px;line-height:1.25;font-family:Passager;-inkscape-font-specification:Passager;letter-spacing:0px;word-spacing:0px;fill:#f5f6fa;fill-opacity:1;stroke:none;stroke-width:0.96998107"
       id="text12">
      <path
         id="path4540"
         style="fill:#f5f6fa;fill-opacity:1;stroke-width:0.96998107"
         d="m 190.68446,139.89262 v -23.81379 h -7.27485 -0.66308 v -0.66308 -2.51967 -0.66308 h 0.66308 19.36173 0.66307 v 0.66308 2.51967 0.66308 h -0.66307 -7.23697 v 23.81379 0.66307 h -0.7578 -3.33431 -0.7578 z m -14.62549,0.3789 c -1.32615,0.44205 -2.73439,0.66307 -4.22472,0.66307 -2.17235,0 -4.20578,-0.36627 -6.10028,-1.0988 -1.71767,-0.73254 -3.20801,-1.88187 -4.471,-3.44798 l -0.39785,-0.51152 0.49257,-0.41679 2.12184,-1.78082 0.53045,-0.43573 0.43574,0.5494 c 0.77043,1.0104 1.81871,1.81872 3.14486,2.42495 1.30089,0.60624 2.7407,0.90936 4.31945,0.90936 0.93461,0 1.76819,-0.1263 2.50073,-0.3789 0.74517,-0.2526 1.37035,-0.58729 1.87555,-1.00408 0.51783,-0.41679 0.91567,-0.90936 1.19353,-1.47771 0.2526,-0.56835 0.3789,-1.18721 0.3789,-1.8566 0,-0.58098 -0.10736,-1.07986 -0.32207,-1.49665 -0.25259,-0.44205 -0.58729,-0.82726 -1.00408,-1.15564 -0.42942,-0.35364 -0.94725,-0.65676 -1.55348,-0.90936 -0.64413,-0.27786 -1.31352,-0.53677 -2.00817,-0.77674 l -3.7511,-1.21248 c -0.92199,-0.30312 -1.79977,-0.65044 -2.63334,-1.04197 -0.85884,-0.41679 -1.58506,-0.9283 -2.17867,-1.53454 -0.59361,-0.60624 -1.06723,-1.30089 -1.42087,-2.08395 -0.36627,-0.80831 -0.54941,-1.74293 -0.54941,-2.80385 0,-1.07355 0.23366,-2.07131 0.70097,-2.9933 0.46731,-0.92199 1.10512,-1.71767 1.91344,-2.38706 0.85883,-0.65676 1.89449,-1.1809 3.10697,-1.57243 1.22511,-0.40416 2.53862,-0.60624 3.94055,-0.60624 1.99553,0 3.67532,0.25891 5.03935,0.77674 1.21247,0.5052 2.33654,1.21248 3.3722,2.12184 l 0.49257,0.43573 -0.43574,0.49257 -1.78082,2.04605 -0.45468,0.53046 -0.49257,-0.49257 c -0.75779,-0.65675 -1.59768,-1.16195 -2.51967,-1.51559 -0.90936,-0.35364 -1.98291,-0.53046 -3.22064,-0.53046 -0.7578,0 -1.45245,0.0947 -2.08395,0.28417 -0.61887,0.18945 -1.16195,0.461 -1.62926,0.81464 -0.46731,0.35363 -0.83358,0.75779 -1.09881,1.21247 -0.2526,0.45468 -0.3789,0.95356 -0.3789,1.49665 0,0.5052 0.10735,0.93462 0.32206,1.28826 0.21471,0.39153 0.51152,0.73254 0.89042,1.02303 0.3789,0.31575 0.83989,0.5936 1.38298,0.83357 0.56835,0.2526 1.16827,0.48626 1.79977,0.70097 l 3.63743,1.21247 c 0.95987,0.32838 1.88186,0.70096 2.76596,1.11775 0.83357,0.42942 1.57243,0.95356 2.21656,1.57243 0.66939,0.6315 1.19984,1.37667 1.59137,2.23551 0.40416,0.87147 0.60624,1.88818 0.60624,3.05013 0,1.18722 -0.2526,2.29234 -0.7578,3.31537 -0.5052,1.01039 -1.19353,1.89449 -2.065,2.65229 -0.88409,0.7578 -1.96395,1.34509 -3.23958,1.76188 z m -37.07526,-3.56165 v -8.75256 -0.66308 -2.53862 -0.66307 -8.01371 -0.66308 -2.51967 -0.66308 h 0.66307 3.35326 15.40224 0.66307 v 0.66308 2.51967 0.66308 h -0.66307 -15.40224 v 8.01371 h 14.70127 0.66308 v 0.66307 2.53862 0.66308 h -0.66308 -14.70127 v 8.75256 h 15.40224 0.66307 v 0.66307 2.51968 0.66307 h -0.66307 -15.40224 -3.35326 -0.64412 -0.0189 v -0.66307 l -0.0189,-2.51968 v -0.66307 z m -15.57274,6.195 -0.64413,-1.42087 -13.35618,-28.36058 -0.39785,-0.89042 h 1.00409 3.22064 0.43573 l 0.18945,0.39785 9.62403,20.91522 0.11367,-0.26523 0.62518,-1.38298 -0.0189,-0.0379 -0.71991,1.6861 2.29234,3.86476 0.11367,0.24629 -0.11367,0.24628 -1.70505,3.5806 z m 3.2017,-6.76335 -2.38707,-4.24366 8.67679,-19.26701 2.62371,-5.59336 -3.90661,0.20575 8.13969,-6.0292 2.39479,8.83217 -2.58281,-2.32588 -2.2546,5.40309 z m -31.164438,-26.25769 0.663073,1.42087 13.242515,28.36058 0.39784,0.89041 h -1.00408 -3.22064 -0.43573 l -0.18945,-0.39784 -3.46693,-7.71059 H 89.385851 l -3.48587,7.71059 -0.189449,0.39784 h -0.435734 -3.22064 -1.004082 l 0.397843,-0.89041 13.356185,-28.36058 z m 3.959494,18.01664 -3.959494,-8.8094 -3.997383,8.8094 z m -31.107593,11.99215 v -23.81379 h -7.274858 -0.663073 v -0.66308 -2.51967 -0.66308 h 0.663073 19.361732 0.663073 v 0.66308 2.51967 0.66308 h -0.663073 -7.236969 v 23.81379 0.66307 h -0.757797 -3.33431 -0.757798 z m -29.194157,-3.18275 v -8.75256 -0.66308 -2.53862 -0.66307 -8.01371 -0.66308 -2.51967 -0.66308 h 0.663073 3.353255 15.402239 0.663073 v 0.66308 2.51967 0.66308 H 58.524543 43.122304 v 8.01371 h 14.701276 0.663073 v 0.66307 2.53862 0.66308 H 57.82358 43.122304 v 8.75256 h 15.402239 0.663073 v 0.66307 2.51968 0.66307 h -0.663073 -15.402239 -3.353255 -0.644128 -0.01895 v -0.66307 l -0.01894,-2.51968 v -0.66307 z m -32.8505332,-27.03443 1.0230269,1.91344 12.8067813,22.73393 12.674167,-22.73393 1.004082,-1.91344 0.246285,2.14078 3.18275,28.03851 0.07578,0.70096 h -0.738853 -2.936466 -0.587293 l -0.07578,-0.58729 -1.989219,-17.50513 -10.268159,18.43343 -0.625183,1.11776 -0.625184,-1.11776 -10.3628836,-18.49026 -1.9323842,17.56196 -0.07578,0.58729 H 6.4638372 3.508426 2.7695732 l 0.07578,-0.70096 3.1827505,-28.03851 z"
         inkscape:connector-curvature="0"
         sodipodi:nodetypes="ccccccccccccccccccccccsccccccccscccsccccccscscccsccccccccscccsccccccccsccccccccccccccccccccccccccccccccccccccccccccccccccccccccccccccccccccccccccccccccccccccccccccccccccccccccccccccccccccccccccccccccccccccccccccccccccccccccccccccccccccccccccccccccccccc" />
    </g>
  </g>
</svg>
